<svg version="1.1" id="Layer_1" xmlns="http://www.w3.org/2000/svg" xmlns:xlink="http://www.w3.org/1999/xlink" x="0px" y="0px"
	 width="100%" viewBox="70 70 380 120">

<path fill="#F5FAFF" opacity="1.000000" stroke="none" 
	d="
M285.830261,126.399078 
	C285.540192,131.142120 285.781494,135.575012 284.774689,139.703506 
	C282.253815,150.040527 273.512817,153.770981 263.923340,149.056717 
	C263.358734,148.779144 262.772888,148.544769 261.616974,148.034058 
	C261.616974,153.713669 261.616974,158.955872 261.616974,164.737762 
	C259.362213,165.033279 257.512146,165.275742 255.336731,165.560852 
	C255.336731,147.458328 255.336731,129.884872 255.336731,110.620895 
	C258.193878,112.356514 260.126709,113.530647 262.452118,114.943260 
	C263.485687,114.313370 265.329773,112.837608 267.426147,111.975243 
	C274.943329,108.882980 282.271057,112.588905 284.665680,120.579605 
	C285.188934,122.325706 285.425140,124.157845 285.830261,126.399078 
M279.134430,127.755600 
	C279.104309,127.258972 279.105713,126.758095 279.039307,126.266365 
	C278.094086,119.267860 275.209991,115.876122 270.390961,116.080811 
	C265.050049,116.307655 261.350922,120.953804 261.344177,127.448624 
	C261.340881,130.599716 261.328583,133.750900 261.347351,136.901886 
	C261.378418,142.117737 263.825684,145.061035 268.671051,145.747513 
	C273.068909,146.370590 276.820953,144.179428 278.022186,139.467697 
	C278.907166,135.996460 278.827942,132.279434 279.134430,127.755600 
z"/>
<path fill="#F9FCFF" opacity="1.000000" stroke="none" 
	d="
M116.310707,149.930801 
	C114.944725,149.175552 113.956741,148.561584 113.447563,148.245163 
	C110.973541,149.081223 108.796349,149.816956 106.149338,150.711456 
	C106.149338,132.094437 106.149338,114.511452 106.149338,96.472656 
	C108.010010,96.264702 109.738052,96.071571 111.876740,95.832542 
	C111.876740,102.476738 111.876740,108.753700 111.876740,114.988686 
	C112.552620,115.082039 112.966232,115.275314 113.148941,115.144958 
	C124.517570,107.033463 135.076233,111.422714 136.666565,125.294838 
	C137.204330,129.985519 136.909561,135.018402 135.790817,139.600861 
	C133.463303,149.134521 126.281517,152.769043 116.310707,149.930801 
M119.959267,116.224770 
	C113.324020,118.856674 112.051353,120.693817 112.048157,127.649536 
	C112.046783,130.643265 112.041122,133.637024 112.049461,136.630737 
	C112.064217,141.927277 114.399277,145.014313 119.032028,145.879257 
	C123.382721,146.691544 128.069733,144.334457 128.876953,139.552612 
	C129.794342,134.118073 129.722122,128.383636 129.158325,122.873901 
	C128.706451,118.457977 125.488045,115.948624 119.959267,116.224770 
z"/>
<path fill="#F5FBFF" opacity="1.000000" stroke="none" 
	d="
M237.937653,111.680496 
	C246.252884,115.630798 249.606735,122.873787 247.803345,133.012238 
	C239.679626,133.012238 231.455292,133.012238 223.237213,133.012238 
	C223.348297,144.947433 230.352753,148.163239 244.116455,142.822983 
	C244.898621,143.899948 245.733261,145.049164 246.524963,146.139267 
	C241.391403,152.030289 229.257492,152.315018 223.719620,148.204041 
	C216.767136,143.042938 214.106277,130.878983 218.115402,121.280014 
	C221.519073,113.130676 227.908035,109.928558 237.937653,111.680496 
M229.602478,116.824593 
	C224.788361,118.798546 223.447937,122.828407 223.041412,127.829788 
	C229.455109,127.829788 235.651169,127.829788 241.836411,127.829788 
	C242.264725,119.306641 238.213638,115.431076 229.602478,116.824593 
z"/>
<path fill="#F5FAFF" opacity="1.000000" stroke="none" 
	d="
M291.937927,123.234619 
	C294.239594,116.584518 298.147217,112.085815 305.005249,111.116547 
	C314.681732,109.748947 321.649231,115.729103 322.798462,126.239540 
	C323.013397,128.205124 322.829224,130.214355 322.829224,132.801483 
	C314.491577,132.801483 306.253448,132.801483 298.058411,132.801483 
	C297.355042,144.760483 305.064514,148.386520 318.507935,142.767029 
	C319.331635,143.844513 320.205841,144.988083 321.270905,146.381302 
	C315.213501,151.114044 308.774170,152.301971 301.852600,149.973083 
	C295.288330,147.764420 292.110687,142.436783 291.301331,135.999557 
	C290.793854,131.963348 291.616028,127.759933 291.937927,123.234619 
M315.141998,120.600983 
	C312.428101,116.397545 308.641510,115.031075 304.033813,116.899467 
	C299.302643,118.817940 297.633118,122.700912 297.875549,127.821571 
	C304.266510,127.821571 310.463165,127.821571 317.146820,127.821571 
	C316.537537,125.382843 316.025635,123.333923 315.141998,120.600983 
z"/>
<path fill="#F0F8FF" opacity="1.000000" stroke="none" 
	d="
M188.040573,143.649780 
	C191.476929,147.108780 194.944839,146.277283 198.371887,144.524780 
	C201.743164,142.800797 203.426987,140.251526 203.265076,136.141190 
	C202.958557,128.359528 203.176437,120.557228 203.176437,112.370880 
	C205.379715,112.370880 207.244843,112.370880 209.398560,112.370880 
	C209.398560,124.810997 209.398560,137.200684 209.398560,149.743439 
	C206.192062,150.739166 203.648026,150.961868 203.781097,147.220535 
	C199.656067,148.478409 195.553741,150.474579 191.308334,150.849228 
	C184.945587,151.410782 181.102234,147.838974 180.878281,141.474335 
	C180.540054,131.861557 180.790024,122.228073 180.790024,112.289062 
	C182.724335,112.289062 184.471710,112.289062 186.941864,112.289062 
	C186.941864,119.960350 186.869019,127.710457 186.982468,135.457840 
	C187.020737,138.071472 187.531448,140.678177 188.040573,143.649780 
z"/>
<path fill="#FAFDFF" opacity="1.000000" stroke="none" 
	d="
M329.963776,119.147591 
	C329.963776,116.541031 329.963776,114.410049 329.963776,110.397987 
	C333.004181,112.307991 334.923584,113.513771 336.584167,114.556953 
	C340.081116,113.481537 344.051697,111.557091 348.170380,111.156868 
	C354.524872,110.539398 358.457458,114.043129 358.709015,120.449936 
	C359.086731,130.069153 358.807312,139.714172 358.807312,149.759079 
	C356.813263,149.850159 355.073578,149.929611 352.630737,150.041183 
	C352.630737,143.294144 352.645386,136.869171 352.622925,130.444321 
	C352.614777,128.114075 352.569366,125.781487 352.450287,123.454613 
	C352.238922,119.324951 351.439240,115.697281 346.018250,115.947792 
	C341.174500,116.171623 336.157135,120.363205 336.090942,124.649651 
	C335.975189,132.143402 336.058868,139.640152 336.042603,147.135605 
	C336.040894,147.935364 335.930328,148.734894 335.853485,149.757416 
	C333.976868,149.757416 332.367767,149.757416 329.963776,149.757416 
	C329.963776,139.776459 329.963776,129.699814 329.963776,119.147591 
z"/>
<path fill="#F8FCFF" opacity="1.000000" stroke="none" 
	d="
M152.061264,119.001678 
	C152.061264,113.204506 152.061264,107.906998 152.061264,103.025299 
	C148.602509,99.689224 141.561279,105.641724 140.072128,97.352310 
	C146.402390,97.352310 152.117935,97.352310 158.303986,97.352310 
	C158.303986,110.365570 158.300568,123.321419 158.305145,136.277267 
	C158.308380,145.440201 159.216904,146.124496 168.474091,145.345642 
	C169.784988,145.235336 171.248917,146.943863 173.276413,148.205231 
	C160.631668,154.686859 152.086243,149.748627 152.063599,137.471527 
	C152.052551,131.481476 152.061417,125.491402 152.061264,119.001678 
z"/>
<path fill="#F3FAFF" opacity="1.000000" stroke="none" 
	d="
M398.241211,96.339417 
	C388.368652,116.844223 378.652344,137.007935 368.771515,157.513046 
	C366.923584,156.688446 365.498505,156.052536 363.680573,155.241318 
	C373.981964,133.819870 384.105225,112.768761 394.402802,91.355209 
	C396.442383,92.634338 400.187134,91.720406 398.241211,96.339417 
z"/>
<path fill="#F4FAFF" opacity="1.000000" stroke="none" 
	d="
M83.212547,121.111267 
	C79.966187,123.146919 77.033775,124.999657 73.357727,127.322243 
	C81.918602,132.689011 89.958488,137.729172 98.337624,142.982025 
	C97.325928,144.562271 96.481911,145.880615 95.249275,147.805954 
	C86.391701,142.206802 77.684586,136.830826 69.135460,131.214355 
	C66.809143,129.686035 67.076775,124.574615 69.479889,123.036568 
	C77.997803,117.584869 86.625198,112.304230 95.449738,106.810219 
	C96.511879,108.484421 97.379990,109.852783 98.518188,111.646873 
	C93.360428,114.840088 88.443466,117.884216 83.212547,121.111267 
z"/>
<path fill="#F4FAFF" opacity="1.000000" stroke="none" 
	d="
M422.782166,137.702408 
	C417.433014,141.071259 412.386230,144.241287 407.045410,147.596024 
	C405.875916,146.186478 404.861084,144.963333 403.363068,143.157837 
	C411.731689,137.917770 419.824341,132.850479 428.673065,127.309769 
	C420.141724,121.972878 412.078064,116.928535 403.683838,111.677414 
	C404.557770,110.080750 405.313080,108.700821 406.399017,106.716797 
	C415.473053,112.371872 424.353210,117.759377 433.051300,123.426346 
	C435.329376,124.910568 434.752838,129.995575 432.352936,131.642960 
	C429.341492,133.710144 426.180847,135.559967 422.782166,137.702408 
z"/>
</svg>